# xmcd
#
# Track frame offsets:
#	150
#	14381
#	24596
#	39806
#	53134
#	64800
#	79331
#	91107
#	100033
#	113457
#	126844
#	136687
#	149381
#	161400
#	175856
#	185719
#	196425
#	207019
#
# Disc length: 2916 seconds
#
# Revision: 1
# Processed by: cddbd v1.5.2PL0 Copyright (c) Steve Scherf et al.
# Submitted via: audiograbber 1.83.01
#
DISCID=e70b6212
DTITLE=Various Artist - Johnny Cash And The Music That Inspired 'Walk The Line
DTITLE=' - Disc 3
DYEAR=2008
DGENRE=Country
TTITLE0=The Carter Family - Can The Circle Be Unbroken?
TTITLE1=Billy Lee Riley - Rock With Me Baby
TTITLE2=Blind Willie Johnson - Dark Was The Night (Cold Was The Ground)
TTITLE3=Bob Wills and His Texas Playboys - Milk Cow Blues
TTITLE4=Charlie Feathers - Defrost Your Heart
TTITLE5=The Carter Family - Wildwood Flower
TTITLE6=Earl Peterson - Boogie Blues
TTITLE7=Elvis Presley - That's All Right
TTITLE8=Guy Mitchell - She Wears Red Feathers
TTITLE9=Little Junior's Blue Flames - Feelin' Good
TTITLE10=June Carter and Carl Smith - Time's A-Wastin'
TTITLE11=Mississippi John Hurt - Candy Man
TTITLE12=Sister Rosetta Tharpe - Didn't It Rain
TTITLE13=The Carter Family - On The Sea Of Galilee
TTITLE14=Wade and Dick - Bop Bop Baby
TTITLE15=Ernest Tubb - Try Me One More Time
TTITLE16=June Carter - Juke Box Blues
TTITLE17=Roy Hogsed - Cocaine Blues
EXTD=
EXTT0=
EXTT1=
EXTT2=
EXTT3=
EXTT4=
EXTT5=
EXTT6=
EXTT7=
EXTT8=
EXTT9=
EXTT10=
EXTT11=
EXTT12=
EXTT13=
EXTT14=
EXTT15=
EXTT16=
EXTT17=
PLAYORDER=
